<svg width="32" height="33" viewBox="0 0 32 33" fill="none" xmlns="http://www.w3.org/2000/svg">
<path d="M1.72505 20.3994H8.97448C9.37479 20.3994 9.69953 20.7241 9.69953 21.1245V31.2738C9.69953 31.6744 9.37486 31.9989 8.97448 31.9989H1.72505C1.32474 31.9989 1 31.6744 1 31.2738V21.1245C1 20.7242 1.32467 20.3994 1.72505 20.3994ZM21.299 22.5743H11.1494V29.824H21.299C21.3942 29.8241 21.4885 29.8054 21.5765 29.769C21.6645 29.7326 21.7445 29.6792 21.8118 29.6118C21.8791 29.5445 21.9325 29.4645 21.9689 29.3765C22.0052 29.2885 22.0239 29.1942 22.0238 29.0989V23.2993C22.024 23.1071 21.9476 22.9226 21.8116 22.7867C21.6757 22.6508 21.4912 22.5743 21.299 22.5743Z" fill="#1F72E4"/>
<path d="M28.5487 16.7747C28.5487 15.6971 28.7535 15.4014 29.0359 14.9906C29.465 14.3691 29.9988 13.596 29.9988 10.9751C29.9908 10.0725 29.7628 9.18544 29.3347 8.39074C28.9066 7.59603 28.2913 6.91764 27.542 6.41427C26.8829 5.97594 26.1321 5.69456 25.3472 5.59175C24.5624 5.48894 23.7644 5.56743 23.0146 5.82121C21.4679 3.56952 18.6789 2.5249 16.0336 3.20557C13.3883 3.88658 11.4505 6.14825 11.1831 8.86658C9.47449 9.19893 8.2431 10.6984 8.25003 12.4393C8.25669 14.1798 9.4997 15.67 11.2107 15.9888C11.5331 17.7039 13.0296 18.9472 14.7747 18.9496C15.9015 18.974 17.0145 18.6973 17.9987 18.1481C18.7812 17.6991 19.6725 17.4747 20.5743 17.4997C22.776 17.4997 23.8565 19.5344 24.2189 20.4095C24.9482 22.1695 24.8229 23.8247 24.4114 24.2368C24.2754 24.3727 24.199 24.5569 24.199 24.7492V27.6491C24.199 27.8413 24.2752 28.0259 24.4114 28.1618C24.5473 28.298 24.7318 28.3742 24.924 28.3742C26.7068 28.3742 29.9988 25.9826 29.9988 22.5743C30.0233 21.4474 29.7466 20.3345 29.1973 19.3502C28.7482 18.5678 28.5237 17.6766 28.5487 16.7747Z" fill="#1F72E4"/>
</svg>
