<svg width="32" height="33" viewBox="0 0 32 33" fill="none" xmlns="http://www.w3.org/2000/svg">
<g clip-path="url(#clip0_1934_4148)">
<path d="M22.5754 10.5067L25.6492 9.54596L26.4618 6.9461L29.0615 6.13368L29.8738 3.53408L31.9996 2.8699L31.4342 1.06047L28.3607 2.02089L27.5483 4.62049L24.9488 5.43291L24.136 8.03283L22.0099 8.69739L22.5754 10.5067ZM28.654 9.8547L28.1783 12.1175L26.521 12.4658L26.9108 14.321L29.779 13.7182L30.2546 11.4555L31.9117 11.1074L31.522 9.25213L28.654 9.8547ZM21.5644 5.50362L22.04 3.24088L23.6971 2.89277L23.3074 1.03754L20.4394 1.64011L19.9637 3.90291L18.3064 4.25121L18.6963 6.10638L21.5644 5.50362ZM4.95274 19.9113L12.8772 27.8356L22.5263 23.8151L8.97328 10.262L4.95274 19.9113ZM9.76175 8.36969L24.4187 23.0266L29.1497 21.0554L11.733 3.63866L9.76175 8.36969ZM-0.00292969 25.4145L3.88516 21.5263L11.2564 28.8976L7.36834 32.7857L-0.00292969 25.4145Z" fill="#1F72E4"/>
</g>
<defs>
<clipPath id="clip0_1934_4148">
<rect width="32" height="32" fill="white" transform="translate(0 0.913208)"/>
</clipPath>
</defs>
</svg>
