<svg width="24" height="28" viewBox="0 0 24 28" fill="none" xmlns="http://www.w3.org/2000/svg">
<path d="M24 19.1839C23.9996 21.4108 23.1148 23.5463 21.54 25.1208C19.9652 26.6953 17.8295 27.5799 15.6027 27.5799H13.7307C12.2537 27.5797 10.803 27.1899 9.52474 26.45C8.24653 25.71 7.18608 24.646 6.4504 23.3653C5.71472 22.0847 5.32983 20.6326 5.33456 19.1557C5.33929 17.6787 5.73347 16.2292 6.47733 14.9532L14.6667 0.913208L22.856 14.9532C23.6049 16.2369 23.9996 17.6964 24 19.1825V19.1839ZM2.66667 0.913208C2.13925 0.913208 1.62368 1.06961 1.18515 1.36262C0.746616 1.65564 0.404823 2.07212 0.202989 2.55939C0.00115542 3.04666 -0.0516535 3.58283 0.0512405 4.10012C0.154134 4.6174 0.40811 5.09255 0.78105 5.46549C1.15399 5.83843 1.62914 6.09241 2.14643 6.1953C2.66371 6.2982 3.19989 6.24539 3.68716 6.04355C4.17443 5.84172 4.5909 5.49993 4.88392 5.0614C5.17694 4.62286 5.33333 4.10729 5.33333 3.57987C5.33333 2.87263 5.05238 2.19435 4.55229 1.69426C4.05219 1.19416 3.37391 0.913208 2.66667 0.913208Z" fill="#1F72E4"/>
</svg>
