<svg width="32" height="33" viewBox="0 0 32 33" fill="none" xmlns="http://www.w3.org/2000/svg">
<g clip-path="url(#clip0_1934_4120)">
<path d="M21.2583 0.950693H29.4692C29.5345 0.951735 29.5984 0.969817 29.6546 1.00315C29.7108 1.03648 29.7572 1.08391 29.7894 1.14073C29.8216 1.19755 29.8384 1.2618 29.8382 1.32711C29.8379 1.39242 29.8206 1.45653 29.7879 1.51308L25.7387 8.52421H31.6251C31.6969 8.52869 31.7658 8.55373 31.8238 8.59633C31.8818 8.63894 31.9262 8.69732 31.9519 8.76451C31.9776 8.8317 31.9834 8.90486 31.9687 8.97527C31.9539 9.04568 31.9193 9.11035 31.8688 9.16159L18.6151 24.7773C18.3527 25.096 17.809 24.796 17.9965 24.3836L22.1769 13.267H15.9344C15.8691 13.266 15.8052 13.2479 15.749 13.2146C15.6928 13.1812 15.6464 13.1338 15.6142 13.077C15.582 13.0202 15.5652 12.9559 15.5654 12.8906C15.5657 12.8253 15.583 12.7612 15.6157 12.7046L20.9209 1.1569C20.9523 1.0945 21.0006 1.04213 21.0602 1.00569C21.1198 0.969256 21.1885 0.950206 21.2583 0.950693Z" fill="#1F72E4"/>
<path d="M5.69877 8.89913H13.9097C13.9824 8.89151 14.0558 8.90536 14.1208 8.93896C14.1858 8.97255 14.2396 9.02444 14.2755 9.08821C14.3113 9.15198 14.3278 9.22486 14.3227 9.29786C14.3177 9.37085 14.2914 9.44078 14.2471 9.49902L10.1791 16.4727H16.0467C16.1217 16.4699 16.1958 16.4897 16.2594 16.5296C16.323 16.5694 16.3732 16.6273 16.4035 16.696C16.4337 16.7646 16.4427 16.8408 16.4293 16.9146C16.4158 16.9884 16.3805 17.0565 16.3279 17.11L3.07428 32.7257C2.79308 33.0632 2.24944 32.782 2.4369 32.3508L6.61734 21.2342H0.374805C0.309503 21.2332 0.245605 21.2151 0.18944 21.1818C0.133275 21.1484 0.0867907 21.101 0.0545915 21.0442C0.0223924 20.9874 0.00559486 20.9231 0.00586252 20.8578C0.00613019 20.7925 0.0234537 20.7284 0.0561176 20.6718L5.36133 9.12409C5.39008 9.05818 5.43718 9.00193 5.49701 8.96205C5.55684 8.92216 5.62687 8.90032 5.69877 8.89913Z" fill="#1F72E4"/>
</g>
<defs>
<clipPath id="clip0_1934_4120">
<rect width="32" height="32" fill="white" transform="translate(0 0.913208)"/>
</clipPath>
</defs>
</svg>
