<svg width="40" height="40" viewBox="0 0 40 40" fill="none" xmlns="http://www.w3.org/2000/svg">
<g clip-path="url(#clip0_1875_3105)">
<path d="M31.25 25C29.5194 25 27.8277 24.4868 26.3888 23.5254C24.9498 22.5639 23.8283 21.1973 23.1661 19.5985C22.5038 17.9996 22.3305 16.2403 22.6681 14.543C23.0058 12.8456 23.8391 11.2865 25.0628 10.0628C26.2865 8.83911 27.8456 8.00575 29.543 7.66813C31.2403 7.33051 32.9996 7.50379 34.5985 8.16606C36.1973 8.82832 37.5639 9.94983 38.5254 11.3888C39.4868 12.8277 40 14.5194 40 16.25L40.04 17.5C40.04 19.7981 39.5874 22.0738 38.7079 24.197C37.8284 26.3202 36.5394 28.2493 34.9144 29.8744C33.2893 31.4994 31.3602 32.7884 29.237 33.6679C27.1138 34.5474 24.8381 35 22.54 35V30C24.1822 30.0044 25.8091 29.6832 27.3264 29.055C28.8438 28.4268 30.2215 27.504 31.38 26.34C31.8303 25.8906 32.2456 25.4075 32.6225 24.895C32.1685 24.9664 31.7096 25.0023 31.25 25.0025V25ZM8.75 25C7.01942 25 5.32769 24.4868 3.88876 23.5254C2.44983 22.5639 1.32832 21.1973 0.666058 19.5985C0.0037913 17.9996 -0.169488 16.2403 0.168133 14.543C0.505753 12.8456 1.33911 11.2865 2.56282 10.0628C3.78653 8.83911 5.34563 8.00575 7.04296 7.66813C8.7403 7.33051 10.4996 7.50379 12.0985 8.16606C13.6973 8.82832 15.0639 9.94983 16.0254 11.3888C16.9868 12.8277 17.5 14.5194 17.5 16.25L17.54 17.5C17.54 22.1413 15.6963 26.5925 12.4144 29.8744C9.13249 33.1563 4.68129 35 0.0400039 35V30C1.68225 30.0044 3.30908 29.6832 4.82642 29.055C6.34376 28.4268 7.72151 27.504 8.88 26.34C9.33027 25.8906 9.74563 25.4075 10.1225 24.895C9.66848 24.9664 9.2096 25.0023 8.75 25.0025V25Z" fill="#1F72E4"/>
</g>
<defs>
<clipPath id="clip0_1875_3105">
<rect width="40" height="40" fill="white"/>
</clipPath>
</defs>
</svg>
