<svg width="32" height="33" viewBox="0 0 32 33" fill="none" xmlns="http://www.w3.org/2000/svg">
<path d="M27.4287 15.3843C29.1673 17.122 30.125 19.4355 30.125 21.8992C30.125 24.3628 29.1673 26.6764 27.4287 28.414L28.7544 29.7397C30.8473 27.6478 32 24.8637 32 21.8992C32 18.9347 30.8473 16.1505 28.7544 14.0586L27.4287 15.3843Z" fill="#1F72E4"/>
<path d="M26.1031 27.0884C27.4874 25.7041 28.25 23.8612 28.25 21.8992C28.25 19.9372 27.4874 18.0942 26.1031 16.71L24.7774 18.0357C25.8074 19.0656 26.375 20.438 26.375 21.8992C26.375 23.3603 25.8074 24.7327 24.7774 25.7627L26.1031 27.0884ZM4.57125 28.4141C2.83262 26.6764 1.875 24.3628 1.875 21.8992C1.875 19.4355 2.83262 17.1219 4.57125 15.3843L3.24556 14.0586C1.15263 16.1506 0 18.9347 0 21.8992C0 24.8636 1.15263 27.6478 3.24556 29.7397L4.57125 28.4141Z" fill="#1F72E4"/>
<path d="M5.89694 16.71C4.51262 18.0942 3.75 19.9372 3.75 21.8992C3.75 23.8611 4.51262 25.7041 5.89694 27.0884L7.22262 25.7627C6.19262 24.7327 5.625 23.3604 5.625 21.8992C5.625 20.438 6.19262 19.0656 7.22262 18.0357L5.89694 16.71ZM20.6013 26.501C20.6389 26.4942 20.6766 26.4973 20.7141 26.4897C22.5195 26.1262 24.0798 24.6046 24.4176 22.7882C24.7243 21.1375 24.1622 19.4969 22.9125 18.401C22.0648 17.6567 21.4419 16.753 21.2277 15.789L19.1971 6.65111C18.862 5.14142 17.5473 4.08673 16.0001 4.08673C14.4528 4.08673 13.1381 5.14142 12.8031 6.65111L10.7724 15.789C10.5582 16.753 9.93538 17.6567 9.08856 18.4C7.83794 19.4969 7.27581 21.1375 7.5825 22.7882C7.92031 24.6046 9.48062 26.1262 11.2851 26.4897C11.3227 26.4972 11.3609 26.4931 11.3986 26.4995C11.3476 26.2229 11.3126 25.9403 11.3126 25.6492V24.7117H13.1876V25.6492C13.1876 27.2159 14.4783 28.4617 16.0001 28.4617C17.5225 28.4617 18.8126 27.2163 18.8126 25.6492V24.7117H20.6876V25.6492C20.6875 25.9409 20.6526 26.2239 20.6013 26.501Z" fill="#1F72E4"/>
</svg>
